<mxfile host="Electron" agent="Mozilla/5.0 (X11; Linux x86_64) AppleWebKit/537.36 (KHTML, like Gecko) draw.io/28.2.5 Chrome/138.0.7204.251 Electron/37.5.1 Safari/537.36" version="28.2.5">
  <diagram name="Chocolate Mousse Activity Diagram" id="chocolate-mousse">
    <mxGraphModel dx="922" dy="682" grid="1" gridSize="10" guides="1" tooltips="1" connect="1" arrows="1" fold="1" page="1" pageScale="1" pageWidth="850" pageHeight="1100" math="0" shadow="0">
      <root>
        <mxCell id="0" />
        <mxCell id="1" parent="0" />
        <mxCell id="fork1" value="" style="line;strokeWidth=4;fillColor=light-dark(#ff1f1f, #ededed);align=left;verticalAlign=middle;spacingTop=-1;spacingLeft=3;spacingRight=3;rotatable=0;labelPosition=right;points=[];portConstraint=eastwest;strokeColor=#FF0000;" parent="1" vertex="1">
          <mxGeometry x="300" y="120" width="250" height="8" as="geometry" />
        </mxCell>
        <mxCell id="break-chocolate" value="Break chocolate into pieces" style="rounded=1;whiteSpace=wrap;html=1;strokeColor=#FF0000;fillColor=#fff2cc;" parent="1" vertex="1">
          <mxGeometry x="290" y="190" width="110" height="40" as="geometry" />
        </mxCell>
        <mxCell id="melt-chocolate" value="Melt chocolate" style="rounded=1;whiteSpace=wrap;html=1;strokeColor=#FF0000;fillColor=#fff2cc;" parent="1" vertex="1">
          <mxGeometry x="290" y="280" width="110" height="40" as="geometry" />
        </mxCell>
        <mxCell id="break-eggs" value="Break eggs separating whites from yolks" style="rounded=1;whiteSpace=wrap;html=1;strokeColor=#FF0000;fillColor=#fff2cc;" parent="1" vertex="1">
          <mxGeometry x="545" y="180" width="110" height="50" as="geometry" />
        </mxCell>
        <mxCell id="whisk-whites" value="Whisk egg whites until stiff" style="rounded=1;whiteSpace=wrap;html=1;strokeColor=#FF0000;fillColor=#fff2cc;" parent="1" vertex="1">
          <mxGeometry x="630" y="280" width="110" height="40" as="geometry" />
        </mxCell>
        <mxCell id="join1" value="" style="line;strokeWidth=4;fillColor=#000000;align=left;verticalAlign=middle;spacingTop=-1;spacingLeft=3;spacingRight=3;rotatable=0;labelPosition=right;points=[];portConstraint=eastwest;strokeColor=#FF0000;" parent="1" vertex="1">
          <mxGeometry x="320" y="380" width="240" height="8" as="geometry" />
        </mxCell>
        <mxCell id="add-yolks" value="Add egg yolks to melted chocolate" style="rounded=1;whiteSpace=wrap;html=1;strokeColor=#FF0000;fillColor=#fff2cc;" parent="1" vertex="1">
          <mxGeometry x="480" y="275" width="120" height="50" as="geometry" />
        </mxCell>
        <mxCell id="fold-whites" value="Gently fold egg whites into chocolate mixture" style="rounded=1;whiteSpace=wrap;html=1;strokeColor=#FF0000;fillColor=#fff2cc;" parent="1" vertex="1">
          <mxGeometry x="615" y="370" width="140" height="60" as="geometry" />
        </mxCell>
        <mxCell id="pour-ramekins" value="Pour into individual ramekins" style="rounded=1;whiteSpace=wrap;html=1;strokeColor=#FF0000;fillColor=#fff2cc;" parent="1" vertex="1">
          <mxGeometry x="350" y="660" width="140" height="60" as="geometry" />
        </mxCell>
        <mxCell id="chill" value="Chill for at least 3 hours in refrigerator" style="rounded=1;whiteSpace=wrap;html=1;strokeColor=#FF0000;fillColor=#fff2cc;" parent="1" vertex="1">
          <mxGeometry x="350" y="760" width="140" height="60" as="geometry" />
        </mxCell>
        <mxCell id="arrow2" value="" style="edgeStyle=orthogonalEdgeStyle;rounded=0;orthogonalLoop=1;jettySize=auto;html=1;strokeColor=#FF3333;" parent="1" source="fork1" target="break-chocolate" edge="1">
          <mxGeometry relative="1" as="geometry">
            <mxPoint x="300" y="124" as="sourcePoint" />
            <Array as="points">
              <mxPoint x="345" y="140" />
              <mxPoint x="345" y="140" />
            </Array>
          </mxGeometry>
        </mxCell>
        <mxCell id="arrow3" value="" style="edgeStyle=orthogonalEdgeStyle;rounded=0;orthogonalLoop=1;jettySize=auto;html=1;strokeColor=#FF3333;" parent="1" source="fork1" target="break-eggs" edge="1">
          <mxGeometry relative="1" as="geometry">
            <mxPoint x="500" y="124" as="sourcePoint" />
            <Array as="points">
              <mxPoint x="495" y="150" />
              <mxPoint x="495" y="150" />
            </Array>
          </mxGeometry>
        </mxCell>
        <mxCell id="arrow4" value="" style="edgeStyle=orthogonalEdgeStyle;rounded=0;orthogonalLoop=1;jettySize=auto;html=1;strokeColor=#FF3333;" parent="1" source="break-chocolate" target="melt-chocolate" edge="1">
          <mxGeometry relative="1" as="geometry" />
        </mxCell>
        <mxCell id="arrow5" value="" style="edgeStyle=orthogonalEdgeStyle;rounded=0;orthogonalLoop=1;jettySize=auto;html=1;strokeColor=#FF0000;" parent="1" source="break-eggs" target="whisk-whites" edge="1">
          <mxGeometry relative="1" as="geometry" />
        </mxCell>
        <mxCell id="arrow6" value="" style="edgeStyle=orthogonalEdgeStyle;rounded=0;orthogonalLoop=1;jettySize=auto;html=1;strokeColor=#FF3333;" parent="1" source="melt-chocolate" target="join1" edge="1">
          <mxGeometry relative="1" as="geometry">
            <mxPoint x="300" y="404" as="targetPoint" />
            <Array as="points">
              <mxPoint x="350" y="310" />
            </Array>
          </mxGeometry>
        </mxCell>
        <mxCell id="arrow11" value="" style="edgeStyle=orthogonalEdgeStyle;rounded=0;orthogonalLoop=1;jettySize=auto;html=1;strokeColor=#FF0000;" parent="1" source="pour-ramekins" target="chill" edge="1">
          <mxGeometry relative="1" as="geometry" />
        </mxCell>
        <mxCell id="arrow12" value="" style="edgeStyle=orthogonalEdgeStyle;rounded=0;orthogonalLoop=1;jettySize=auto;html=1;strokeColor=#FF0000;" parent="1" source="chill" edge="1">
          <mxGeometry relative="1" as="geometry">
            <mxPoint x="420" y="860" as="targetPoint" />
          </mxGeometry>
        </mxCell>
        <mxCell id="fpK8DyNSHtduy2bM0YB3-1" value="" style="ellipse;html=1;shape=endState;fillColor=#000000;strokeColor=#ff0000;" vertex="1" parent="1">
          <mxGeometry x="405" y="860" width="30" height="30" as="geometry" />
        </mxCell>
        <mxCell id="fpK8DyNSHtduy2bM0YB3-2" value="" style="ellipse;html=1;shape=startState;fillColor=#000000;strokeColor=#ff0000;" vertex="1" parent="1">
          <mxGeometry x="410" y="30" width="30" height="30" as="geometry" />
        </mxCell>
        <mxCell id="fpK8DyNSHtduy2bM0YB3-3" value="" style="edgeStyle=orthogonalEdgeStyle;html=1;verticalAlign=bottom;endArrow=open;endSize=8;strokeColor=#ff0000;rounded=0;entryX=0.5;entryY=0;entryDx=0;entryDy=0;entryPerimeter=0;" edge="1" source="fpK8DyNSHtduy2bM0YB3-2" parent="1" target="fork1">
          <mxGeometry relative="1" as="geometry">
            <mxPoint x="365" y="100" as="targetPoint" />
          </mxGeometry>
        </mxCell>
        <mxCell id="fpK8DyNSHtduy2bM0YB3-8" value="" style="line;strokeWidth=4;fillColor=#000000;align=left;verticalAlign=middle;spacingTop=-1;spacingLeft=3;spacingRight=3;rotatable=0;labelPosition=right;points=[];portConstraint=eastwest;strokeColor=#FF0000;" vertex="1" parent="1">
          <mxGeometry x="470" y="250" width="240" height="8" as="geometry" />
        </mxCell>
        <mxCell id="fpK8DyNSHtduy2bM0YB3-9" value="" style="line;strokeWidth=4;fillColor=#000000;align=left;verticalAlign=middle;spacingTop=-1;spacingLeft=3;spacingRight=3;rotatable=0;labelPosition=right;points=[];portConstraint=eastwest;strokeColor=#FF0000;" vertex="1" parent="1">
          <mxGeometry x="470" y="490" width="240" height="8" as="geometry" />
        </mxCell>
        <mxCell id="fpK8DyNSHtduy2bM0YB3-10" value="" style="edgeStyle=orthogonalEdgeStyle;rounded=0;orthogonalLoop=1;jettySize=auto;html=1;strokeColor=#FF0000;exitX=0.303;exitY=0.428;exitDx=0;exitDy=0;exitPerimeter=0;entryX=0.5;entryY=0;entryDx=0;entryDy=0;" edge="1" parent="1" source="fpK8DyNSHtduy2bM0YB3-8" target="add-yolks">
          <mxGeometry relative="1" as="geometry">
            <mxPoint x="720" y="250" as="sourcePoint" />
            <mxPoint x="805" y="300" as="targetPoint" />
          </mxGeometry>
        </mxCell>
        <mxCell id="fpK8DyNSHtduy2bM0YB3-11" value="" style="edgeStyle=orthogonalEdgeStyle;rounded=0;orthogonalLoop=1;jettySize=auto;html=1;strokeColor=#FF0000;exitX=0.5;exitY=1;exitDx=0;exitDy=0;" edge="1" parent="1" source="add-yolks">
          <mxGeometry relative="1" as="geometry">
            <mxPoint x="655" y="388" as="sourcePoint" />
            <mxPoint x="540" y="380" as="targetPoint" />
          </mxGeometry>
        </mxCell>
        <mxCell id="fpK8DyNSHtduy2bM0YB3-12" value="" style="edgeStyle=orthogonalEdgeStyle;rounded=0;orthogonalLoop=1;jettySize=auto;html=1;strokeColor=#FF0000;exitX=0.511;exitY=0.801;exitDx=0;exitDy=0;entryX=0.5;entryY=0;entryDx=0;entryDy=0;exitPerimeter=0;" edge="1" parent="1" source="fpK8DyNSHtduy2bM0YB3-9" target="pour-ramekins">
          <mxGeometry relative="1" as="geometry">
            <mxPoint x="540" y="350" as="sourcePoint" />
            <mxPoint x="540" y="405" as="targetPoint" />
            <Array as="points">
              <mxPoint x="593" y="570" />
              <mxPoint x="420" y="570" />
            </Array>
          </mxGeometry>
        </mxCell>
        <mxCell id="fpK8DyNSHtduy2bM0YB3-13" value="" style="edgeStyle=orthogonalEdgeStyle;rounded=0;orthogonalLoop=1;jettySize=auto;html=1;strokeColor=#FF0000;exitX=0.509;exitY=1.036;exitDx=0;exitDy=0;exitPerimeter=0;" edge="1" parent="1" source="join1" target="fpK8DyNSHtduy2bM0YB3-9">
          <mxGeometry relative="1" as="geometry">
            <mxPoint x="713" y="570" as="sourcePoint" />
            <mxPoint x="540" y="734" as="targetPoint" />
            <Array as="points">
              <mxPoint x="440" y="388" />
              <mxPoint x="440" y="430" />
              <mxPoint x="540" y="430" />
            </Array>
          </mxGeometry>
        </mxCell>
        <mxCell id="fpK8DyNSHtduy2bM0YB3-16" value="" style="edgeStyle=orthogonalEdgeStyle;rounded=0;orthogonalLoop=1;jettySize=auto;html=1;strokeColor=#FF0000;exitX=0.5;exitY=1;exitDx=0;exitDy=0;entryX=0.5;entryY=0;entryDx=0;entryDy=0;" edge="1" parent="1" source="whisk-whites" target="fold-whites">
          <mxGeometry relative="1" as="geometry">
            <mxPoint x="680" y="330" as="sourcePoint" />
            <mxPoint x="680" y="385" as="targetPoint" />
          </mxGeometry>
        </mxCell>
        <mxCell id="fpK8DyNSHtduy2bM0YB3-17" value="" style="edgeStyle=orthogonalEdgeStyle;rounded=0;orthogonalLoop=1;jettySize=auto;html=1;strokeColor=#FF0000;exitX=0.5;exitY=1;exitDx=0;exitDy=0;entryX=0.75;entryY=0;entryDx=0;entryDy=0;entryPerimeter=0;" edge="1" parent="1" source="fold-whites" target="fpK8DyNSHtduy2bM0YB3-9">
          <mxGeometry relative="1" as="geometry">
            <mxPoint x="680" y="340" as="sourcePoint" />
            <mxPoint x="680" y="390" as="targetPoint" />
          </mxGeometry>
        </mxCell>
      </root>
    </mxGraphModel>
  </diagram>
</mxfile>
